<?xml version="1.0" encoding="UTF-8"?>
<svg width="250" height="250" viewBox="0 0 250 250" xmlns="http://www.w3.org/2000/svg">
    <path fill="currentColor" d="M250 115.13L236.114 111.694C187.888 99.764 150.236 62.1075 138.306 13.8856L134.87 0H115.13L111.694 13.8856C99.764 62.1125 62.1075 99.764 13.8856 111.694L0 115.13V134.87L13.8856 138.305C62.1125 150.236 99.764 187.892 111.694 236.114L115.13 250H134.87L138.306 236.114C150.236 187.887 187.893 150.236 236.114 138.305L250 134.87V115.13ZM191.213 129.065C158.846 133.39 133.385 158.851 129.06 191.218L124.995 221.649L120.93 191.218C116.605 158.851 91.1437 133.39 58.7774 129.065L28.3462 125L58.7774 120.935C91.1437 116.61 116.605 91.1486 120.93 58.7823L124.995 28.3511L129.06 58.7823C133.385 91.1486 158.846 116.61 191.213 120.935L221.644 125L191.213 129.065Z" />
</svg> 